<svg width="69" height="321" viewBox="0 0 69 321" fill="none" xmlns="http://www.w3.org/2000/svg">
<g filter="url(#filter0_d_1085_957)">
<path d="M14 271.444C14 264.572 19.5867 259 26.4783 259H42.5217C49.4133 259 55 264.572 55 271.444V286.556C55 293.428 49.4133 299 42.5217 299H26.4783C19.5867 299 14 293.428 14 286.556V271.444Z" fill="#5051F9"/>
</g>
<path fill-rule="evenodd" clip-rule="evenodd" d="M38.5 13C38.0478 13 37.4089 13.0625 36.7438 13.1536C36.4331 13.1962 36.1962 13.4331 36.1536 13.7438C36.0625 14.4089 36 15.0478 36 15.5C36 15.9522 36.0625 16.5911 36.1536 17.2562C36.1962 17.5669 36.4331 17.8038 36.7438 17.8464C37.4089 17.9375 38.0478 18 38.5 18C38.9522 18 39.5911 17.9375 40.2562 17.8464C40.5669 17.8038 40.8038 17.5669 40.8464 17.2562C40.9375 16.5911 41 15.9522 41 15.5C41 15.0478 40.9375 14.4089 40.8464 13.7438C40.8038 13.4331 40.5669 13.1962 40.2562 13.1536C39.5911 13.0625 38.9522 13 38.5 13ZM36.4724 11.1721C35.2725 11.3364 34.3364 12.2725 34.1721 13.4724C34.0778 14.1606 34 14.9082 34 15.5C34 16.0918 34.0778 16.8394 34.1721 17.5276C34.3364 18.7275 35.2725 19.6636 36.4724 19.8279C37.1606 19.9222 37.9082 20 38.5 20C39.0918 20 39.8394 19.9222 40.5276 19.8279C41.7275 19.6636 42.6636 18.7275 42.8279 17.5276C42.9222 16.8394 43 16.0918 43 15.5C43 14.9082 42.9222 14.1606 42.8279 13.4724C42.6636 12.2725 41.7275 11.3364 40.5276 11.1721C39.8394 11.0778 39.0918 11 38.5 11C37.9082 11 37.1606 11.0778 36.4724 11.1721Z" fill="#5F6388"/>
<path fill-rule="evenodd" clip-rule="evenodd" d="M27.5 13C27.0478 13 26.4089 13.0625 25.7438 13.1536C25.4331 13.1962 25.1962 13.4331 25.1536 13.7438C25.0625 14.4089 25 15.0478 25 15.5C25 15.9522 25.0625 16.5911 25.1536 17.2562C25.1962 17.5669 25.4331 17.8038 25.7438 17.8464C26.4089 17.9375 27.0478 18 27.5 18C27.9522 18 28.5911 17.9375 29.2562 17.8464C29.5669 17.8038 29.8038 17.5669 29.8464 17.2562C29.9375 16.5911 30 15.9522 30 15.5C30 15.0478 29.9375 14.4089 29.8464 13.7438C29.8038 13.4331 29.5669 13.1962 29.2562 13.1536C28.5911 13.0625 27.9522 13 27.5 13ZM25.4724 11.1721C24.2725 11.3364 23.3364 12.2725 23.1721 13.4724C23.0778 14.1606 23 14.9082 23 15.5C23 16.0918 23.0778 16.8394 23.1721 17.5276C23.3364 18.7275 24.2725 19.6636 25.4724 19.8279C26.1606 19.9222 26.9082 20 27.5 20C28.0918 20 28.8394 19.9222 29.5276 19.8279C30.7275 19.6636 31.6636 18.7275 31.8279 17.5276C31.9222 16.8394 32 16.0918 32 15.5C32 14.9082 31.9222 14.1606 31.8279 13.4724C31.6636 12.2725 30.7275 11.3364 29.5276 11.1721C28.8394 11.0778 28.0918 11 27.5 11C26.9082 11 26.1606 11.0778 25.4724 11.1721Z" fill="#5F6388"/>
<path fill-rule="evenodd" clip-rule="evenodd" d="M38.5 2C38.0478 2 37.4089 2.0625 36.7438 2.15359C36.4331 2.19615 36.1962 2.43308 36.1536 2.74381C36.0625 3.40893 36 4.04782 36 4.5C36 4.95218 36.0625 5.59107 36.1536 6.25619C36.1962 6.56692 36.4331 6.80385 36.7438 6.84641C37.4089 6.9375 38.0478 7 38.5 7C38.9522 7 39.5911 6.9375 40.2562 6.84641C40.5669 6.80385 40.8038 6.56692 40.8464 6.25619C40.9375 5.59107 41 4.95218 41 4.5C41 4.04782 40.9375 3.40893 40.8464 2.74381C40.8038 2.43308 40.5669 2.19615 40.2562 2.15359C39.5911 2.0625 38.9522 2 38.5 2ZM36.4724 0.172092C35.2725 0.336423 34.3364 1.27253 34.1721 2.47244C34.0778 3.16065 34 3.90816 34 4.5C34 5.09184 34.0778 5.83935 34.1721 6.52756C34.3364 7.72747 35.2725 8.66358 36.4724 8.82791C37.1606 8.92216 37.9082 9 38.5 9C39.0918 9 39.8394 8.92216 40.5276 8.82791C41.7275 8.66358 42.6636 7.72747 42.8279 6.52756C42.9222 5.83935 43 5.09184 43 4.5C43 3.90816 42.9222 3.16065 42.8279 2.47244C42.6636 1.27253 41.7275 0.336423 40.5276 0.172092C39.8394 0.0778385 39.0918 0 38.5 0C37.9082 0 37.1606 0.0778385 36.4724 0.172092Z" fill="#5F6388"/>
<path fill-rule="evenodd" clip-rule="evenodd" d="M27.5 2C27.0478 2 26.4089 2.0625 25.7438 2.15359C25.4331 2.19615 25.1962 2.43308 25.1536 2.74381C25.0625 3.40893 25 4.04782 25 4.5C25 4.95218 25.0625 5.59107 25.1536 6.25619C25.1962 6.56692 25.4331 6.80385 25.7438 6.84641C26.4089 6.9375 27.0478 7 27.5 7C27.9522 7 28.5911 6.9375 29.2562 6.84641C29.5669 6.80385 29.8038 6.56692 29.8464 6.25619C29.9375 5.59107 30 4.95218 30 4.5C30 4.04782 29.9375 3.40893 29.8464 2.74381C29.8038 2.43308 29.5669 2.19615 29.2562 2.15359C28.5911 2.0625 27.9522 2 27.5 2ZM25.4724 0.172092C24.2725 0.336423 23.3364 1.27253 23.1721 2.47244C23.0778 3.16065 23 3.90816 23 4.5C23 5.09184 23.0778 5.83935 23.1721 6.52756C23.3364 7.72747 24.2725 8.66358 25.4724 8.82791C26.1606 8.92216 26.9082 9 27.5 9C28.0918 9 28.8394 8.92216 29.5276 8.82791C30.7275 8.66358 31.6636 7.72747 31.8279 6.52756C31.9222 5.83935 32 5.09184 32 4.5C32 3.90816 31.9222 3.16065 31.8279 2.47244C31.6636 1.27253 30.7275 0.336423 29.5276 0.172092C28.8394 0.0778385 28.0918 0 27.5 0C26.9082 0 26.1606 0.0778385 25.4724 0.172092Z" fill="#5F6388"/>
<defs>
<filter id="filter0_d_1085_957" x="0" y="253" width="69" height="68" filterUnits="userSpaceOnUse" color-interpolation-filters="sRGB">
<feFlood flood-opacity="0" result="BackgroundImageFix"/>
<feColorMatrix in="SourceAlpha" type="matrix" values="0 0 0 0 0 0 0 0 0 0 0 0 0 0 0 0 0 0 127 0" result="hardAlpha"/>
<feOffset dy="8"/>
<feGaussianBlur stdDeviation="7"/>
<feComposite in2="hardAlpha" operator="out"/>
<feColorMatrix type="matrix" values="0 0 0 0 0.241771 0 0 0 0 0.420242 0 0 0 0 0.879167 0 0 0 0.12 0"/>
<feBlend mode="normal" in2="BackgroundImageFix" result="effect1_dropShadow_1085_957"/>
<feBlend mode="normal" in="SourceGraphic" in2="effect1_dropShadow_1085_957" result="shape"/>
</filter>
</defs>
</svg>
